Coordinates
version=1
nRows=34
nColumns=38
inDegrees=no

Units are S.I. units (second, meters, Newtons, ...)
If the header above contains a line with 'inDegrees', this indicates whether rotational values are in degrees (yes) or radians (no).

endheader
time	pelvis_tilt	pelvis_list	pelvis_rotation	pelvis_tx	pelvis_ty	pelvis_tz	hip_flexion_r	hip_adduction_r	hip_rotation_r	knee_angle_r	ankle_angle_r	subtalar_angle_r	mtp_angle_r	hip_flexion_l	hip_adduction_l	hip_rotation_l	knee_angle_l	ankle_angle_l	subtalar_angle_l	mtp_angle_l	lumbar_extension	lumbar_bending	lumbar_rotation	arm_flex_r	arm_add_r	arm_rot_r	elbow_flex_r	pro_sup_r	wrist_flex_r	wrist_dev_r	arm_flex_l	arm_add_l	arm_rot_l	elbow_flex_l	pro_sup_l	wrist_flex_l	wrist_dev_l
1.99	0.0261898	1.53221	1.581	0.597343	-0.327951	1.01514	0.158252	-0.13442	0.0760652	0.77051	-0.096186	0	0	-0.135228	0.0233682	-0.246194	0.168308	-0.254471	0	0	-0.0493756	-0.0867832	-0.00395962	0.636354	-0.63596	0.829241	1.43074	1.5708	0	0	0.559834	-0.222641	0.760623	1.32795	1.5708	0	0
2	0.0804102	1.53287	1.52791	0.595795	-0.327851	1.01532	0.171399	-0.128679	0.0931212	0.797254	-0.103464	0	0	-0.137639	0.0222828	-0.244873	0.165019	-0.256291	0	0	-0.056026	-0.0837739	-0.0113954	0.659293	-0.629623	0.84364	1.41293	1.5708	0	0	0.574246	-0.220758	0.762741	1.31552	1.5708	0	0
2.01	0.137968	1.53342	1.47121	0.59436	-0.327699	1.01555	0.185334	-0.122169	0.109937	0.82518	-0.111175	0	0	-0.140167	0.0211302	-0.244536	0.161937	-0.258211	0	0	-0.0630866	-0.080976	-0.0183965	0.681389	-0.622881	0.856887	1.39545	1.5708	0	0	0.588441	-0.219167	0.764614	1.30396	1.5708	0	0
2.02	0.209912	1.53382	1.39942	0.593089	-0.327445	1.01583	0.199772	-0.114155	0.126876	0.85374	-0.11935	0	0	-0.143131	0.0195369	-0.245308	0.158427	-0.260346	0	0	-0.0700654	-0.0777937	-0.0244352	0.702665	-0.61577	0.869363	1.37803	1.5708	0	0	0.601946	-0.217902	0.766082	1.29313	1.5708	0	0
2.03	0.293073	1.53451	1.31611	0.591896	-0.327125	1.01614	0.213983	-0.105184	0.14275	0.883083	-0.127295	0	0	-0.147237	0.0178908	-0.24603	0.153791	-0.262437	0	0	-0.0775654	-0.0744128	-0.0301586	0.723934	-0.608125	0.881865	1.36043	1.5708	0	0	0.615326	-0.216823	0.767189	1.28255	1.5708	0	0
2.04	0.37442	1.53514	1.23519	0.590704	-0.326676	1.01648	0.227928	-0.0968827	0.155451	0.911169	-0.13236	0	0	-0.15147	0.0163784	-0.246325	0.149288	-0.263438	0	0	-0.0855866	-0.0713644	-0.0357555	0.742982	-0.600559	0.891133	1.34424	1.5708	0	0	0.627514	-0.215167	0.766038	1.27302	1.5708	0	0
2.05	0.443569	1.53563	1.16587	0.589606	-0.326125	1.0168	0.243053	-0.0891965	0.166788	0.940667	-0.144596	0	0	-0.156708	0.0158908	-0.245508	0.142347	-0.268485	0	0	-0.0931669	-0.0701869	-0.0359279	0.755823	-0.597155	0.893594	1.33165	1.5708	0	0	0.645359	-0.211629	0.775257	1.25929	1.5708	0	0
2.06	0.51224	1.53589	1.09703	0.588575	-0.325443	1.01707	0.258181	-0.081873	0.175578	0.968621	-0.151965	0	0	-0.16161	0.0151854	-0.245871	0.136679	-0.270911	0	0	-0.100746	-0.0681952	-0.0385079	0.771173	-0.591365	0.899166	1.31819	1.5708	0	0	0.659373	-0.209425	0.778083	1.2488	1.5708	0	0
2.07	0.583521	1.53577	1.02545	0.587622	-0.32462	1.01731	0.273305	-0.0749599	0.181844	0.994641	-0.15786	0	0	-0.166615	0.0142892	-0.246153	0.131014	-0.273182	0	0	-0.107812	-0.0660458	-0.0402074	0.785142	-0.58599	0.903498	1.30552	1.5708	0	0	0.673384	-0.207033	0.781565	1.23818	1.5708	0	0
2.08	0.652952	1.53486	0.955628	0.58675	-0.323692	1.01747	0.288824	-0.0682824	0.185097	1.01864	-0.161673	0	0	-0.1711	0.0130631	-0.245216	0.125326	-0.275124	0	0	-0.114013	-0.0636174	-0.0409563	0.798012	-0.581347	0.907091	1.29365	1.5708	0	0	0.687383	-0.204501	0.78582	1.22751	1.5708	0	0
2.09	0.711973	1.53313	0.896277	0.585952	-0.322697	1.01757	0.304786	-0.0618105	0.185708	1.04015	-0.162831	0	0	-0.174428	0.0115648	-0.243302	0.120169	-0.276756	0	0	-0.119774	-0.0613892	-0.0413239	0.809995	-0.57719	0.909707	1.28272	1.5708	0	0	0.701295	-0.201483	0.790089	1.21678	1.5708	0	0
2.1	0.757649	1.53092	0.850591	0.585131	-0.321571	1.01764	0.320241	-0.0561183	0.184087	1.05748	-0.162387	0	0	-0.176844	0.00972211	-0.242612	0.116397	-0.276859	0	0	-0.12517	-0.0586383	-0.0428547	0.822677	-0.572428	0.913366	1.27197	1.5708	0	0	0.712543	-0.198747	0.790386	1.20815	1.5708	0	0
2.11	0.778135	1.52831	0.830261	0.584304	-0.320328	1.01766	0.335958	-0.0517499	0.180651	1.07091	-0.160299	0	0	-0.178686	0.00829141	-0.241725	0.112325	-0.278382	0	0	-0.128746	-0.0563921	-0.0428545	0.833189	-0.568994	0.91568	1.26159	1.5708	0	0	0.725715	-0.195579	0.795491	1.19732	1.5708	0	0
2.12	0.806081	1.52543	0.801653	0.583656	-0.319091	1.01774	0.351112	-0.0468775	0.177152	1.08018	-0.158097	0	0	-0.180519	0.00619667	-0.241845	0.108687	-0.279869	0	0	-0.132335	-0.053195	-0.0417874	0.844012	-0.565787	0.918568	1.25135	1.5708	0	0	0.738641	-0.192413	0.80043	1.18646	1.5708	0	0
2.13	0.826277	1.52233	0.780924	0.58304	-0.317803	1.01775	0.366056	-0.0425979	0.172547	1.08557	-0.157025	0	0	-0.181851	0.00404608	-0.241813	0.105354	-0.28116	0	0	-0.135644	-0.0501002	-0.0404491	0.854297	-0.563193	0.921092	1.24181	1.5708	0	0	0.751468	-0.189093	0.805782	1.17587	1.5708	0	0
2.14	0.837965	1.51928	0.769022	0.582416	-0.316438	1.0177	0.380658	-0.0393544	0.166465	1.08709	-0.157043	0	0	-0.182646	0.00203871	-0.242221	0.102743	-0.282114	0	0	-0.139333	-0.04776	-0.0395626	0.863691	-0.56088	0.922013	1.23354	1.5708	0	0	0.763858	-0.185378	0.80999	1.16585	1.5708	0	0
2.15	0.845794	1.51638	0.761171	0.581792	-0.31501	1.01761	0.394664	-0.0369381	0.159543	1.08481	-0.157319	0	0	-0.183242	0.00022472	-0.243609	0.100723	-0.282916	0	0	-0.143382	-0.0458145	-0.0386979	0.872486	-0.559019	0.921698	1.22625	1.5708	0	0	0.776433	-0.181294	0.814166	1.15602	1.5708	0	0
2.16	0.857289	1.51366	0.74976	0.581189	-0.313504	1.0175	0.407573	-0.0347441	0.152422	1.07857	-0.157275	0	0	-0.184269	-0.00155929	-0.245387	0.0987674	-0.283499	0	0	-0.14776	-0.0437748	-0.0377209	0.881097	-0.557456	0.920955	1.21952	1.5708	0	0	0.788958	-0.17717	0.818474	1.14657	1.5708	0	0
2.17	0.87026	1.51109	0.73674	0.580661	-0.311903	1.01737	0.419533	-0.0326579	0.145449	1.06878	-0.156778	0	0	-0.185881	-0.00318171	-0.246738	0.0962396	-0.283907	0	0	-0.152445	-0.0418463	-0.0366419	0.889752	-0.555971	0.92025	1.21337	1.5708	0	0	0.801119	-0.173297	0.822427	1.13787	1.5708	0	0
2.18	0.878572	1.50831	0.728163	0.580231	-0.310202	1.01716	0.43128	-0.0306023	0.138669	1.05613	-0.15641	0	0	-0.18733	-0.0048455	-0.247731	0.0935441	-0.283953	0	0	-0.156891	-0.0400853	-0.0356495	0.898231	-0.554324	0.919388	1.20781	1.5708	0	0	0.812203	-0.169847	0.824866	1.13044	1.5708	0	0
2.19	0.880992	1.50538	0.725409	0.579857	-0.308361	1.01688	0.442684	-0.0289181	0.13195	1.0406	-0.156204	0	0	-0.188755	-0.00641644	-0.248354	0.0904882	-0.283945	0	0	-0.160384	-0.0383427	-0.0341197	0.90594	-0.552977	0.918173	1.2025	1.5708	0	0	0.823056	-0.16655	0.828086	1.12323	1.5708	0	0
2.2	0.879906	1.5025	0.726064	0.57953	-0.306375	1.01657	0.453509	-0.0276078	0.125441	1.02238	-0.156025	0	0	-0.190335	-0.00777355	-0.248542	0.0872624	-0.284095	0	0	-0.162878	-0.0364169	-0.0320724	0.913057	-0.551889	0.917231	1.19716	1.5708	0	0	0.833828	-0.163322	0.832502	1.11553	1.5708	0	0
2.21	0.886484	1.49996	0.718425	0.579297	-0.304414	1.01634	0.463393	-0.0256051	0.119975	1.00234	-0.156234	0	0	-0.192682	-0.00917953	-0.248618	0.0839009	-0.284539	0	0	-0.16663	-0.0345526	-0.0297397	0.920934	-0.55066	0.916758	1.19215	1.5708	0	0	0.844426	-0.160192	0.835638	1.10842	1.5708	0	0
2.22	0.887914	1.49723	0.716026	0.579116	-0.302364	1.01606	0.473354	-0.023548	0.113991	0.981188	-0.156431	0	0	-0.195005	-0.0104781	-0.247717	0.0797779	-0.285407	0	0	-0.169946	-0.0329213	-0.0276398	0.928805	-0.54926	0.916704	1.1871	1.5708	0	0	0.854559	-0.157153	0.838391	1.10152	1.5708	0	0
2.23	0.878265	1.49424	0.724807	0.578982	-0.300167	1.01567	0.483531	-0.0223017	0.108386	0.958361	-0.15708	0	0	-0.197013	-0.0113178	-0.246221	0.074792	-0.286579	0	0	-0.171902	-0.0316829	-0.0255919	0.936015	-0.54787	0.91677	1.18199	1.5708	0	0	0.864256	-0.154349	0.841622	1.09466	1.5708	0	0
2.24	0.862512	1.49107	0.739183	0.578966	-0.297815	1.01517	0.493943	-0.021427	0.104224	0.934598	-0.158801	0	0	-0.198647	-0.0119298	-0.24612	0.069996	-0.287468	0	0	-0.172821	-0.030765	-0.0229144	0.942556	-0.546801	0.91677	1.1774	1.5708	0	0	0.87374	-0.151843	0.845629	1.0881	1.5708	0	0
2.25	0.843067	1.48763	0.757299	0.578984	-0.295367	1.01455	0.50467	-0.0208365	0.100016	0.910979	-0.160254	0	0	-0.2002	-0.0124413	-0.245993	0.0645297	-0.287984	0	0	-0.172963	-0.0296912	-0.020277	0.948996	-0.546061	0.916853	1.17355	1.5708	0	0	0.882814	-0.149533	0.849196	1.08215	1.5708	0	0
2.26	0.821859	1.48435	0.77774	0.578942	-0.292841	1.01392	0.515296	-0.0214073	0.0947849	0.886739	-0.16261	0	0	-0.202102	-0.012473	-0.245068	0.0582964	-0.288922	0	0	-0.173009	-0.0288772	-0.0180199	0.954892	-0.545701	0.91597	1.17034	1.5708	0	0	0.892198	-0.146831	0.853043	1.07581	1.5708	0	0
2.27	0.800009	1.48084	0.79881	0.578946	-0.290191	1.01324	0.526	-0.0220111	0.0890206	0.862699	-0.165588	0	0	-0.204032	-0.012451	-0.244258	0.051521	-0.290131	0	0	-0.172483	-0.0281707	-0.0154547	0.959998	-0.545592	0.914276	1.16743	1.5708	0	0	0.901403	-0.143918	0.857178	1.06934	1.5708	0	0
2.28	0.776349	1.47697	0.821757	0.57904	-0.287416	1.01247	0.536882	-0.0225862	0.0826849	0.839036	-0.169076	0	0	-0.205682	-0.0124955	-0.243374	0.044417	-0.291378	0	0	-0.171029	-0.0269657	-0.0130249	0.965167	-0.545322	0.913449	1.16454	1.5708	0	0	0.909592	-0.14143	0.860677	1.06335	1.5708	0	0
2.29	0.751545	1.47268	0.84598	0.579192	-0.284529	1.01162	0.548084	-0.023103	0.0756503	0.816061	-0.17262	0	0	-0.206891	-0.0127493	-0.242476	0.0375832	-0.292304	0	0	-0.168936	-0.0255838	-0.0109571	0.970349	-0.544868	0.913273	1.16181	1.5708	0	0	0.916955	-0.139376	0.863412	1.05815	1.5708	0	0
2.3	0.725691	1.46791	0.87163	0.579352	-0.281482	1.01071	0.559484	-0.0240049	0.0674609	0.792672	-0.179625	0	0	-0.208604	-0.0128581	-0.238777	0.0284964	-0.29514	0	0	-0.165531	-0.0232429	-0.0102259	0.976931	-0.543299	0.91638	1.15793	1.5708	0	0	0.922739	-0.13844	0.864837	1.05381	1.5708	0	0
2.31	0.703196	1.46347	0.893877	0.579575	-0.278302	1.00977	0.57025	-0.0250016	0.0590778	0.769816	-0.182378	0	0	-0.210124	-0.0131663	-0.238317	0.021575	-0.295008	0	0	-0.162209	-0.0197814	-0.0113062	0.986009	-0.539561	0.922993	1.15281	1.5708	0	0	0.925534	-0.139305	0.860786	1.05238	1.5708	0	0
2.32	0.679764	1.45922	0.916959	0.579895	-0.27497	1.0088	0.580868	-0.0261634	0.050353	0.748654	-0.184249	0	0	-0.212031	-0.0130626	-0.238303	0.0143363	-0.296962	0	0	-0.159062	-0.0192417	-0.00732455	0.987098	-0.541813	0.918141	1.15386	1.5708	0	0	0.933749	-0.135675	0.866593	1.04617	1.5708	0	0
